<?xml version="1.0" encoding="utf-8"?>
<!-- Generator: Adobe Illustrator 22.0.1, SVG Export Plug-In . SVG Version: 6.00 Build 0)  -->
<svg version="1.1" id="圖層_1" xmlns="http://www.w3.org/2000/svg" xmlns:xlink="http://www.w3.org/1999/xlink" x="0px" y="0px"
	 viewBox="0 0 206.7 47" style="enable-background:new 0 0 206.7 47;" xml:space="preserve">
<style type="text/css">
	.st0{fill:#333E51;}
	.st1{font-family:'DFHuaZong-W5-WINP-BF';}
	.st2{font-size:31.292px;}
	.st3{fill:#F4F3EA;}
	.st4{fill:#D2AC2C;}
	.st5{fill:#CAD0D7;}
</style>
<g>
	<text transform="matrix(1 0 0 1 54.638 32.9273)" class="st0 st1 st2">GOODBED</text>
	<g>
		<circle class="st0" cx="28.2" cy="23.5" r="17.4"/>
		<path class="st3" d="M39.3,24.9h-0.2v-1c0-0.8-0.4-1.5-1.1-1.8v-5.8c0-0.2-0.1-0.3-0.2-0.4c0.1-0.2,0.2-0.5,0.2-0.7
			c0-0.9-0.8-1.7-1.7-1.7c-0.9,0-1.7,0.8-1.7,1.7c0,0.2,0,0.4,0.1,0.6H21.7c0.1-0.2,0.1-0.4,0.1-0.6c0-0.9-0.8-1.7-1.7-1.7
			c-0.9,0-1.7,0.8-1.7,1.7c0,0.3,0.1,0.5,0.2,0.7c-0.1,0.1-0.2,0.2-0.2,0.4v5.8c-0.7,0.3-1.1,1.1-1.1,1.8v1h-0.2
			c-0.3,0-0.5,0.2-0.5,0.5v5.4c0,0.3,0.2,0.5,0.5,0.5h0.2v1.8c0,0.3,0.2,0.5,0.5,0.5h1.5c0.3,0,0.5-0.2,0.5-0.5v-1.8h16.5v1.8
			c0,0.3,0.2,0.5,0.5,0.5h1.5c0.3,0,0.5-0.2,0.5-0.5v-1.8h0.2c0.3,0,0.5-0.2,0.5-0.5v-5.4C39.8,25.1,39.6,24.9,39.3,24.9z
			 M37.5,32.5v-1.2H38v1.2H37.5z M18.9,31.3v1.2h-0.5v-1.2H18.9z M19.6,15.1c0-0.3,0.3-0.6,0.6-0.6s0.6,0.3,0.6,0.6
			c0,0.3-0.3,0.6-0.6,0.6S19.6,15.4,19.6,15.1z M21.5,20.1c0-0.5,0.4-1,1-1h3.1c0.5,0,1,0.4,1,1v0.8c0,0.5-0.4,1-1,1h-3.1
			c-0.5,0-1-0.4-1-1V20.1z M29.9,20.1c0-0.5,0.4-1,1-1h3.1c0.5,0,1,0.4,1,1v0.8c0,0.5-0.4,1-1,1h-3.1c-0.5,0-1-0.4-1-1V20.1z
			 M36.9,21.8h-1.1c0.2-0.3,0.3-0.6,0.3-1v-0.8c0-1.1-0.9-2.1-2.1-2.1h-3.1c-1.1,0-2.1,0.9-2.1,2.1v0.8c0,0.3,0.1,0.7,0.3,1h-1.8
			c0.2-0.3,0.3-0.6,0.3-1v-0.8c0-1.1-0.9-2.1-2.1-2.1h-3.1c-1.1,0-2.1,0.9-2.1,2.1v0.8c0,0.3,0.1,0.7,0.3,1h-1.1v-5.1h17.3V21.8z
			 M18.4,24.9v-1c0-0.5,0.4-1,1-1H37c0.5,0,1,0.4,1,1v1H18.4z M35.6,15.1c0-0.3,0.3-0.6,0.6-0.6s0.6,0.3,0.6,0.6
			c0,0.3-0.3,0.6-0.6,0.6S35.6,15.4,35.6,15.1z M38.8,26v4.3H17.7V26H38.8z"/>
		<g>
			<path class="st0" d="M28.2,42.8c-10.6,0-19.3-8.6-19.3-19.3c0-10.6,8.6-19.3,19.3-19.3c10.6,0,19.3,8.6,19.3,19.3
				C47.5,34.1,38.8,42.8,28.2,42.8z M28.2,4.8c-10.3,0-18.7,8.4-18.7,18.7c0,10.3,8.4,18.7,18.7,18.7c10.3,0,18.7-8.4,18.7-18.7
				C47,13.2,38.5,4.8,28.2,4.8z"/>
			<path class="st0" d="M28.2,43C17.4,43,8.7,34.3,8.7,23.5C8.7,12.7,17.4,4,28.2,4C39,4,47.7,12.7,47.7,23.5
				C47.7,34.3,39,43,28.2,43z M28.2,4.5c-10.5,0-19,8.5-19,19c0,10.5,8.5,19,19,19c10.5,0,19-8.5,19-19C47.2,13,38.7,4.5,28.2,4.5z
				 M28.2,42.5c-10.5,0-19-8.5-19-19c0-10.5,8.5-19,19-19c10.5,0,19,8.5,19,19C47.2,34,38.7,42.5,28.2,42.5z M28.2,5
				C18,5,9.7,13.3,9.7,23.5C9.7,33.7,18,42,28.2,42c10.2,0,18.5-8.3,18.5-18.5C46.7,13.3,38.4,5,28.2,5z"/>
		</g>
	</g>
</g>
</svg>
