<?xml version="1.0" encoding="utf-8"?>
<!-- Generator: Adobe Illustrator 22.0.1, SVG Export Plug-In . SVG Version: 6.00 Build 0)  -->
<svg version="1.1" id="圖層_1" xmlns="http://www.w3.org/2000/svg" xmlns:xlink="http://www.w3.org/1999/xlink" x="0px" y="0px"
	 viewBox="0 0 52 47" style="enable-background:new 0 0 52 47;" xml:space="preserve">
<style type="text/css">
	.st0{fill:#333E51;}
	.st1{fill:#F4F3EA;}
	.st2{fill:#D2AC2C;}
	.st3{fill:#CAD0D7;}
</style>
<g>
	<g>
		<circle class="st2" cx="26" cy="23.5" r="17.4"/>
		<path class="st2" d="M26,4C15.2,4,6.5,12.7,6.5,23.5C6.5,34.3,15.2,43,26,43c10.8,0,19.5-8.8,19.5-19.5C45.5,12.7,36.8,4,26,4z
			 M44.5,23.5C44.5,33.7,36.2,42,26,42C15.8,42,7.5,33.7,7.5,23.5C7.5,13.3,15.8,5,26,5C36.2,5,44.5,13.3,44.5,23.5z"/>
	</g>
	<path class="st1" d="M37.1,24.9h-0.2v-1c0-0.8-0.4-1.5-1.1-1.8v-5.8c0-0.2-0.1-0.3-0.2-0.4c0.1-0.2,0.2-0.5,0.2-0.7
		c0-0.9-0.8-1.7-1.7-1.7c-0.9,0-1.7,0.8-1.7,1.7c0,0.2,0,0.4,0.1,0.6H19.5c0.1-0.2,0.1-0.4,0.1-0.6c0-0.9-0.8-1.7-1.7-1.7
		c-0.9,0-1.7,0.8-1.7,1.7c0,0.3,0.1,0.5,0.2,0.7c-0.1,0.1-0.2,0.2-0.2,0.4V22c-0.7,0.3-1.1,1.1-1.1,1.8v1h-0.2
		c-0.3,0-0.5,0.2-0.5,0.5v5.4c0,0.3,0.2,0.5,0.5,0.5h0.2v1.8c0,0.3,0.2,0.5,0.5,0.5h1.5c0.3,0,0.5-0.2,0.5-0.5v-1.8h16.5v1.8
		c0,0.3,0.2,0.5,0.5,0.5h1.5c0.3,0,0.5-0.2,0.5-0.5v-1.8h0.2c0.3,0,0.5-0.2,0.5-0.5v-5.4C37.6,25.1,37.4,24.9,37.1,24.9z M35.3,32.5
		v-1.2h0.5v1.2H35.3z M16.7,31.3v1.2h-0.5v-1.2H16.7z M17.4,15.1c0-0.3,0.3-0.6,0.6-0.6s0.6,0.3,0.6,0.6c0,0.3-0.3,0.6-0.6,0.6
		S17.4,15.4,17.4,15.1z M19.3,20.1c0-0.5,0.4-1,1-1h3.1c0.5,0,1,0.4,1,1v0.8c0,0.5-0.4,1-1,1h-3.1c-0.5,0-1-0.4-1-1V20.1z
		 M27.7,20.1c0-0.5,0.4-1,1-1h3.1c0.5,0,1,0.4,1,1v0.8c0,0.5-0.4,1-1,1h-3.1c-0.5,0-1-0.4-1-1V20.1z M34.6,21.8h-1.1
		c0.2-0.3,0.3-0.6,0.3-1v-0.8c0-1.1-0.9-2.1-2.1-2.1h-3.1c-1.1,0-2.1,0.9-2.1,2.1v0.8c0,0.3,0.1,0.7,0.3,1h-1.8
		c0.2-0.3,0.3-0.6,0.3-1v-0.8c0-1.1-0.9-2.1-2.1-2.1h-3.1c-1.1,0-2.1,0.9-2.1,2.1v0.8c0,0.3,0.1,0.7,0.3,1h-1.1v-5.1h17.3V21.8z
		 M16.2,24.9v-1c0-0.5,0.4-1,1-1h17.6c0.5,0,1,0.4,1,1v1H16.2z M33.4,15.1c0-0.3,0.3-0.6,0.6-0.6s0.6,0.3,0.6,0.6
		c0,0.3-0.3,0.6-0.6,0.6S33.4,15.4,33.4,15.1z M36.6,25.9v4.3H15.4v-4.3H36.6z"/>
</g>
</svg>
